<svg width="24" height="23" viewBox="0 0 24 23" fill="none" xmlns="http://www.w3.org/2000/svg">
<path d="M4 0.5H20C20.8081 0.5 21.5 1.1906 21.5 2.09082V2.11719L21.5029 2.14355L23.4561 20.5186L23.458 20.542L23.4629 20.5654C23.4866 20.6826 23.5 20.7962 23.5 20.9092C23.5 21.8094 22.8081 22.5 22 22.5H2C1.19188 22.5 0.500046 21.8094 0.5 20.9092C0.5 20.7962 0.513414 20.6826 0.537109 20.5654L0.541992 20.542L0.543945 20.5186L2.49707 2.14355L2.5 2.11719V2.09082C2.50005 1.1906 3.19188 0.5 4 0.5ZM16.5 1.59082C15.3751 1.59082 14.5 2.53858 14.5 3.65918V6.27246C14.5 7.74668 13.3571 8.90918 12 8.90918C10.6429 8.90918 9.5 7.74668 9.5 6.27246V3.65918C9.5 2.53858 8.62486 1.59082 7.5 1.59082C6.37514 1.59082 5.5 2.53858 5.5 3.65918C5.50003 4.41778 5.89966 5.08275 6.5 5.44141V6.27246C6.5 9.40974 8.94614 12 12 12C15.0539 12 17.5 9.40974 17.5 6.27246V5.44141C18.1003 5.08275 18.5 4.41778 18.5 3.65918C18.5 2.53858 17.6249 1.59082 16.5 1.59082Z" stroke="#9B9B9B"/>
</svg>
