<svg width="22" height="20" viewBox="0 0 22 20" fill="none" xmlns="http://www.w3.org/2000/svg">
<path d="M7.58333 0L5.60083 2.16667H2.16667C0.975 2.16667 0 3.14167 0 4.33333V17.3333C0 18.525 0.975 19.5 2.16667 19.5H19.5C20.6917 19.5 21.6667 18.525 21.6667 17.3333V4.33333C21.6667 3.14167 20.6917 2.16667 19.5 2.16667H16.0658L14.0833 0H7.58333ZM10.8333 16.25C7.84333 16.25 5.41667 13.8233 5.41667 10.8333C5.41667 7.84333 7.84333 5.41667 10.8333 5.41667C13.8233 5.41667 16.25 7.84333 16.25 10.8333C16.25 13.8233 13.8233 16.25 10.8333 16.25Z" fill="white"/>
</svg>
