<svg width="22" height="25" viewBox="0 0 22 25" fill="none" xmlns="http://www.w3.org/2000/svg">
<path d="M10.643 24.5L10.643 24H10.643L10.643 24.5ZM0.502197 19.0577L0.00225407 19.0502L-8.05259e-05 19.205L0.0855329 19.3341L0.502197 19.0577ZM20.7839 19.0577L21.2006 19.3341L21.2862 19.205L21.2838 19.0502L20.7839 19.0577ZM10.643 1C13.1725 1 15.2135 3.04093 15.2135 5.57042H16.2135C16.2135 2.48865 13.7248 0 10.643 0V1ZM15.2135 5.57042C15.2135 8.09991 13.1725 10.1408 10.643 10.1408V11.1408C13.7248 11.1408 16.2135 8.6522 16.2135 5.57042H15.2135ZM10.643 10.1408C8.11354 10.1408 6.07261 8.09991 6.07261 5.57042H5.07261C5.07261 8.6522 7.56125 11.1408 10.643 11.1408V10.1408ZM6.07261 5.57042C6.07261 3.04093 8.11354 1 10.643 1V0C7.56125 0 5.07261 2.48865 5.07261 5.57042H6.07261ZM10.643 24C6.7319 24 3.08085 22.0406 0.918862 18.7813L0.0855329 19.3341C2.4328 22.8727 6.39673 25 10.643 25L10.643 24ZM1.00214 19.0653C1.01211 18.404 1.34709 17.7784 1.97464 17.1902C2.60431 16.6002 3.49442 16.0826 4.51696 15.6549C6.56408 14.7987 9.02116 14.3521 10.643 14.3521V13.3521C8.88464 13.3521 6.29665 13.8266 4.1311 14.7324C3.0473 15.1857 2.03917 15.7593 1.29084 16.4606C0.540402 17.1638 0.0176376 18.0297 0.00225407 19.0502L1.00214 19.0653ZM10.643 14.3521C12.2563 14.3521 14.7135 14.7986 16.763 15.655C17.7866 16.0827 18.6784 16.6004 19.3094 17.1906C19.9384 17.7789 20.274 18.4045 20.2839 19.0653L21.2838 19.0502C21.2684 18.0293 20.7442 17.1633 19.9925 16.4603C19.2429 15.7591 18.2332 15.1855 17.1485 14.7323C14.9811 13.8267 12.3931 13.3521 10.643 13.3521V14.3521ZM20.3672 18.7813C18.2052 22.0406 14.5542 24 10.643 24L10.643 25C14.8893 25 18.8533 22.8727 21.2006 19.3341L20.3672 18.7813Z" fill="#9B9B9B"/>
</svg>
