<svg width="46" height="46" viewBox="0 0 46 46" fill="none" xmlns="http://www.w3.org/2000/svg">
<path d="M32.2917 28.4167H30.2508L29.5275 27.7192C32.0592 24.7742 33.5833 20.9508 33.5833 16.7917C33.5833 7.5175 26.0658 0 16.7917 0C7.5175 0 0 7.5175 0 16.7917C0 26.0658 7.5175 33.5833 16.7917 33.5833C20.9508 33.5833 24.7742 32.0592 27.7192 29.5275L28.4167 30.2508V32.2917L41.3333 45.1825L45.1825 41.3333L32.2917 28.4167ZM16.7917 28.4167C10.3592 28.4167 5.16667 23.2242 5.16667 16.7917C5.16667 10.3592 10.3592 5.16667 16.7917 5.16667C23.2242 5.16667 28.4167 10.3592 28.4167 16.7917C28.4167 23.2242 23.2242 28.4167 16.7917 28.4167Z" fill="#DB3022"/>
</svg>
